<svg xmlns="http://www.w3.org/2000/svg" xmlns:xlink="http://www.w3.org/1999/xlink" preserveAspectRatio="none slice" width="2880" height="670.65" viewBox="0 0 2880 670.65"><defs><linearGradient id="a" y1="534.27" x2="2880" y2="534.27" gradientUnits="userSpaceOnUse"><stop offset="0" stop-color="#70edd4"/><stop offset="1" stop-color="#f8cdda"/></linearGradient><linearGradient id="b" x1="0" y1="594.48" x2="2880" y2="594.48" xlink:href="#a"/><linearGradient id="c" y1="510.41" x2="2880" y2="510.41" gradientUnits="userSpaceOnUse"><stop offset="0" stop-color="#f8ffae"/><stop offset="1" stop-color="#43c6ac"/></linearGradient><linearGradient id="d" x1="0" y1="518.3" x2="2880" y2="518.3" xlink:href="#a"/><linearGradient id="e" x1="0" y1="538.93" x2="2880" y2="538.93" xlink:href="#c"/><linearGradient id="f" x1="0" y1="264.42" x2="2880" y2="264.42" xlink:href="#c"/><linearGradient id="g" x1="0" y1="189.7" x2="2880" y2="189.7" xlink:href="#c"/><linearGradient id="h" x1="0" y1="192.76" x2="2880" y2="192.76" xlink:href="#a"/><linearGradient id="i" x1="0" y1="261.82" x2="2880" y2="261.82" xlink:href="#a"/><linearGradient id="j" x1="0" y1="510.4" x2="2880" y2="510.4" xlink:href="#a"/><linearGradient id="k" x1="0" y1="540.5" x2="2880" y2="540.5" xlink:href="#a"/><linearGradient id="l" x1="0" y1="361.94" x2="2880" y2="361.94" xlink:href="#c"/><linearGradient id="m" x1="0" y1="361.94" x2="2880" y2="361.94" xlink:href="#a"/></defs><title>wave_xx</title><path d="M1713,526.62h0Z" fill="#e8f7f4"/><path d="M1533.05,481.6l3.43.83Z" fill="#e8f7f4"/><path d="M1704.3,524.68l.19,0Z" fill="#e8f7f4"/><path d="M1524.1,479.47l3.54.84Z" fill="#e8f7f4"/><path d="M1515.13,477.38l3.1.72Z" fill="#e8f7f4"/><path d="M1695.62,522.7l.24.06Z" fill="#e8f7f4"/><path d="M2120.46,523.24l.53-.12Z" fill="#e8f7f4"/><path d="M1678.41,518.62l.21.05Z" fill="#e8f7f4"/><path d="M1687,520.67l.26.06Z" fill="#e8f7f4"/><path d="M1669.92,516.55h0Z" fill="#e8f7f4"/><path d="M1485.15,470.55l4.58,1.06Z" fill="#e8f7f4"/><path d="M1495.44,472.93l10.65,2.41Z" fill="#e8f7f4"/><polygon points="2133.88 520.04 2133.88 520.04 2133.87 520.04 2133.88 520.04" fill="#e8f7f4"/><path d="M1475.23,468.22l1.87.44Z" fill="#e8f7f4"/><path d="M1559.76,488.19l2.85.72Z" fill="#e8f7f4"/><path d="M1542,483.77l3.27.81Z" fill="#e8f7f4"/><path d="M1550.87,486l3.15.79Z" fill="#e8f7f4"/><path d="M1577.68,492.77l1.4.36Z" fill="#e8f7f4"/><path d="M1568.69,490.46l2.29.59Z" fill="#e8f7f4"/><path d="M1996.77,544.48l1.53-.16Z" fill="#e8f7f4"/><path d="M1941.5,548.58l.78,0Z" fill="#e8f7f4"/><path d="M1963.11,547.4l1.15-.08Z" fill="#e8f7f4"/><path d="M1952.22,548.06l1-.05Z" fill="#e8f7f4"/><path d="M1974.16,546.59l1.31-.1Z" fill="#e8f7f4"/><path d="M1465.65,465.95l-2.16.38,2.16-.38Z" fill="#e8f7f4"/><path d="M1985.38,545.61l1.42-.13Z" fill="#e8f7f4"/><path d="M1931,548.95h0Z" fill="#e8f7f4"/><path d="M2306.49,467.94c-52.43,24.36-100.9,43.58-146.1,58.52,54,13.3,111.89,28.61,174.07,46.19C2606.1,649.41,2775,671.75,2880,670.33V526.74C2860.24,500.91,2685,292.07,2306.49,467.94Z" opacity="0.4" fill="url(#a)"/><path d="M1920.58,549.18h0Z" fill="#e8f7f4"/><path d="M2081.41,531.62l1.35-.27Z" fill="#e8f7f4"/><path d="M2056.32,536.21l1.59-.27Z" fill="#e8f7f4"/><path d="M2068.78,534l1.48-.27Z" fill="#e8f7f4"/><path d="M2107.25,526.24l.9-.2Z" fill="#e8f7f4"/><path d="M2094.23,529l1.16-.25Z" fill="#e8f7f4"/><path d="M2020.06,541.7l1.63-.22Z" fill="#e8f7f4"/><path d="M2008.33,543.18l1.59-.19Z" fill="#e8f7f4"/><path d="M2044.06,538.22l1.63-.26Z" fill="#e8f7f4"/><path d="M2032,540.05l1.64-.24Z" fill="#e8f7f4"/><path d="M2878.56,629.77c-105,1.14-273.9-16.89-545.55-78.85-52.9-12.07-102.64-22.8-149.59-32.35q-11.66,4.13-23,7.9c54,13.3,111.89,28.61,174.07,46.19C2606.1,649.41,2775,671.75,2880,670.33V526.74c-.41-.54-.89-1.16-1.44-1.84Z" opacity="0.4" fill="url(#b)"/><path d="M1463.49,466.33c14.41,4.28,29,8.54,44,12.69,195.88,54.2,350.77,147.29,652.85,47.44C1802,438.26,1613.28,439.26,1463.49,466.33Z" fill="url(#c)"/><path d="M2160.38,526.46c-8.95-2.2-17.76-4.33-26.5-6.43-285.73,70-437.4-2.18-627.78-44.7-13.76-3.07-27.19-6.22-40.45-9.39l-2.16.38c14.41,4.28,29,8.54,44,12.69C1703.41,533.22,1858.3,626.31,2160.38,526.46Z" opacity="0.4" fill="url(#d)"/><path d="M0,453.5V624.92c85.1,3.65,221.3-12.93,439.22-76.43-29.27-10.42-59.68-22.2-91.44-35.55C228.66,462.84,110,448.16,0,453.5Z" fill="url(#e)"/><path d="M1478.94,331.29c-113.82-19.59-246-56.26-402.63-115-350-131.18-511.05-92-638.06-25.16h0C723.33,332.06,876.25,494,1478.94,331.29Z" fill="url(#f)"/><path d="M2277.12,108.64c-34,22.31-66.93,44.86-99.84,66.75C2482.6,191.46,2544.79,402.48,2880,377.33V27C2853,19.25,2541-64.45,2277.12,108.64Z" fill="url(#g)"/><path d="M438.25,191.17C273,109.51,126.28,68.06,0,51.11V331C217,353.73,310.31,258.46,438.25,191.17Z" opacity="0.7" fill="url(#h)"/><path d="M2177.28,175.39c-114-6-261.82,15.16-470.42,85.94-82.59,28-158.25,51.16-227.92,70C1824.83,390.83,2001.06,292.6,2177.28,175.39Z" opacity="0.5" fill="url(#i)"/><path d="M508.24,527.65q-35.81,11.18-69,20.84C820,684.07,999.42,581.88,1230.45,524c80.34-20.12,150.83-42.83,233-57.69C1261.55,406.36,1100.51,342.76,508.24,527.65Z" opacity="0.4" fill="url(#j)"/><path d="M1230.45,524c80.34-20.12,150.83-42.83,233-57.69l-3.24-1c-81.44,12-151.49,30.17-231.24,46.3-224.76,45.44-400.7,124.72-760.71,28.22q-14.76,4.43-29.08,8.62C820,684.07,999.42,581.88,1230.45,524Z" opacity="0.4" fill="url(#k)"/><path d="M2177.28,175.39c-176.23,117.21-352.45,215.44-698.34,155.9C876.25,494,723.33,332.06,438.26,191.17h0C310.31,258.46,217,353.73,0,331V453.5c110-5.34,228.66,9.35,347.78,59.44,31.76,13.36,62.18,25.13,91.44,35.55q33.23-9.68,69-20.84c592.27-184.89,753.31-121.29,955.25-61.32,149.78-27.07,338.55-28.07,696.89,60.14,45.2-14.94,93.67-34.16,146.1-58.52,378.5-175.87,553.75,33,573.51,58.8V377.33C2544.79,402.48,2482.6,191.46,2177.28,175.39Z" fill="url(#l)"/><path d="M2177.28,175.39c-176.23,117.21-352.45,215.44-698.34,155.9C876.25,494,723.33,332.06,438.26,191.17h0C310.31,258.46,217,353.73,0,331V453.5c110-5.34,228.66,9.35,347.78,59.44,31.76,13.36,62.18,25.13,91.44,35.55q33.23-9.68,69-20.84c592.27-184.89,753.31-121.29,955.25-61.32,149.78-27.07,338.55-28.07,696.89,60.14,45.2-14.94,93.67-34.16,146.1-58.52,378.5-175.87,553.75,33,573.51,58.8V377.33C2544.79,402.48,2482.6,191.46,2177.28,175.39Z" opacity="0.7" fill="url(#m)"/><path d="M2334.45,572.65c-62.18-17.57-120-32.89-174.07-46.19-302.09,99.85-457,6.76-652.85-47.44-15-4.15-29.62-8.41-44-12.69-82.22,14.86-152.7,37.57-233,57.69-231,57.86-410.45,160-791.23,24.47C221.3,612,85.1,628.57,0,624.92v45.73H2880v-.32C2775,671.75,2606.1,649.41,2334.45,572.65Z" fill="#fff"/></svg>
